<?xml version="1.0" encoding="UTF-8" standalone="no"?>
<!-- Creator: CorelDRAW X7 -->

<svg
   xml:space="preserve"
   width="200mm"
   height="200mm"
   version="1.1"
   style="shape-rendering:geometricPrecision; text-rendering:geometricPrecision; image-rendering:optimizeQuality; fill-rule:evenodd; clip-rule:evenodd"
   viewBox="0 0 20000 20000"
   id="svg1"
   xmlns="http://www.w3.org/2000/svg"
   xmlns:svg="http://www.w3.org/2000/svg">
 <defs
   id="defs1">
  <style
   type="text/css"
   id="style1">
   <![CDATA[
    .fil1 {fill:black}
    .fil0 {fill:black;fill-rule:nonzero}
   ]]>
  </style>
 </defs>
 <g
   id="Ebene_x0020_1">
  <metadata
   id="CorelCorpID_0Corel-Layer" />
  <path
   id="Schriftzug"
   class="fil0"
   d="M5521 17568l-605 0 0 1883 -534 0 0 -1883 -600 0 0 -409 1739 0 0 409zm825 1915c-251,0 -452,-78 -601,-236 -150,-157 -225,-354 -225,-591l0 -60c0,-259 68,-471 204,-635 136,-164 331,-246 583,-244 231,0 413,69 544,207 131,138 196,326 196,562l0 278 -972 0 -4 10c12,87 48,159 107,215 60,57 140,85 240,85 101,0 181,-8 241,-24 61,-15 137,-43 229,-81l127 324c-75,54 -171,100 -290,136 -118,36 -244,54 -379,54zm-39 -1357c-76,0 -133,27 -172,81 -38,54 -61,127 -70,217l5 8 458 0 0 -41c0,-85 -18,-151 -54,-196 -36,-46 -91,-69 -167,-69zm1523 1325l-534 0 0 -2457 534 0 0 2457zm1104 32c-251,0 -451,-78 -601,-236 -149,-157 -224,-354 -224,-591l0 -60c0,-259 68,-471 204,-635 136,-164 330,-246 583,-244 231,0 412,69 543,207 131,138 197,326 197,562l0 278 -973 0 -3 10c11,87 47,159 107,215 59,57 140,85 239,85 101,0 182,-8 242,-24 60,-15 136,-43 229,-81l126 324c-75,54 -171,100 -289,136 -118,36 -245,54 -380,54zm-38 -1357c-77,0 -134,27 -173,81 -38,54 -61,127 -70,217l5 8 458 0 0 -41c0,-85 -18,-151 -53,-196 -36,-46 -91,-69 -167,-69zm2778 520l4 9c-11,269 -90,474 -239,616 -148,141 -364,212 -646,212 -284,0 -514,-87 -691,-261 -178,-174 -266,-400 -266,-678l0 -478c0,-277 85,-503 255,-678 171,-174 393,-261 666,-261 289,0 511,73 664,218 153,146 240,353 260,622l-3 10 -518 0c-7,-149 -41,-260 -100,-332 -59,-73 -160,-109 -303,-109 -121,0 -216,48 -285,146 -70,96 -104,224 -104,381l0 481c0,158 38,286 113,384 76,97 180,146 312,146 128,0 219,-34 272,-102 54,-68 84,-177 91,-326l518 0zm187 -63c0,-256 73,-464 218,-625 145,-161 347,-241 606,-241 260,0 463,80 608,241 144,161 217,369 217,625l0 34c0,256 -73,465 -217,626 -145,160 -347,240 -605,240 -261,0 -464,-80 -609,-240 -145,-161 -218,-370 -218,-626l0 -34zm533 34c0,142 22,254 66,335 45,81 121,122 228,122 104,0 179,-41 224,-123 44,-81 67,-193 67,-334l0 -34c0,-138 -23,-249 -67,-332 -45,-83 -121,-125 -227,-125 -105,0 -180,42 -225,126 -44,84 -66,194 -66,331l0 34zm1851 -868l19 224c54,-82 121,-145 202,-190 82,-44 174,-66 280,-66 106,0 197,23 273,69 77,46 135,116 174,210 52,-89 120,-157 202,-206 82,-49 179,-73 289,-73 166,0 296,56 391,170 95,114 143,290 143,527l0 1037 -534 0 0 -1037c0,-110 -17,-186 -52,-227 -33,-41 -84,-61 -153,-61 -51,0 -96,9 -136,27 -39,19 -73,44 -100,77 0,17 0,33 1,46 2,13 2,26 2,39l0 1136 -532 0 0 -1037c0,-110 -17,-186 -50,-227 -34,-41 -86,-61 -156,-61 -49,0 -92,9 -131,27 -40,19 -73,44 -100,77l0 1221 -533 0 0 -1702 501 0z" />
  <path
   id="Ringe"
   class="fil1"
   d="m 10000,3996 c 1014,0 1950,328 2710,884 l -323,677 c -10,4 -19,7 -28,11 -651,-508 -1469,-811 -2359,-811 -890,0 -1708,303 -2359,811 -9,-4 -18,-7 -28,-11 l -323,-677 c 760,-556 1696,-884 2710,-884 z M 7168,5571 c -403,144 -574,514 -635,934 -25,171 -36,345 -35,520 -7,15 -13,30 -20,44 l -641,-426 c 260,-556 629,-1050 1078,-1458 z m 5917,-386 c 449,408 818,902 1078,1458 l -641,426 c -7,-14 -13,-29 -20,-44 1,-175 -10,-349 -35,-520 -61,-420 -232,-790 -635,-934 z m 1385,2333 c 83,345 127,705 127,1075 0,909 -264,1756 -719,2469 1,-11 2,-22 2,-33 4,-297 -135,-713 -269,-972 -12,-23 -24,-46 -37,-69 169,-432 262,-903 262,-1395 0,-256 -25,-505 -72,-746 z m -8234,329 c -47,241 -72,490 -72,746 0,492 93,963 262,1395 -13,23 -25,46 -37,69 -134,259 -273,675 -269,972 0,11 1,22 2,33 -455,-713 -719,-1560 -719,-2469 0,-370 44,-730 127,-1075 z M 10000,798 c 1379,0 2674,359 3798,987 l -439,701 c -996,-549 -2141,-862 -3359,-862 -1218,0 -2363,313 -3359,862 L 6202,1785 C 7326,1157 8621,798 10000,798 Z M 5603,3187 c -438,357 -832,766 -1173,1218 l -702,-441 c 407,-550 885,-1045 1420,-1471 z m 9249,-694 c 535,426 1013,921 1420,1471 l -702,441 c -341,-452 -735,-861 -1173,-1218 z m 2553,3661 c 252,767 390,1587 390,2439 0,4305 -3490,7794 -7795,7794 -4305,0 -7795,-3489 -7795,-7794 0,-852 138,-1672 390,-2439 l 755,351 c -207,659 -319,1360 -319,2088 0,3848 3120,6968 6969,6968 3849,0 6969,-3120 6969,-6968 0,-728 -112,-1429 -319,-2088 z M 10000,3225 c 906,0 1760,224 2508,621 l 439,-702 c -876,-475 -1880,-745 -2947,-745 -1067,0 -2071,270 -2947,745 l 439,702 c 748,-397 1602,-621 2508,-621 z m -3969,613 c -349,291 -665,620 -942,980 l 703,442 c 209,-263 442,-506 695,-726 z m 7482,696 c 253,220 486,463 695,726 l 703,-442 c -277,-360 -593,-689 -942,-980 z m 1669,2653 c 121,448 186,920 186,1406 0,2383 -1553,4403 -3703,5104 -13,89 -25,180 -37,272 -26,212 -53,437 -135,636 2699,-668 4701,-3106 4701,-6012 0,-611 -89,-1201 -254,-1758 z M 4060,6835 c -165,557 -254,1147 -254,1758 0,2906 2002,5344 4701,6012 -82,-199 -109,-424 -135,-636 -12,-92 -24,-183 -37,-272 -2150,-701 -3703,-2721 -3703,-5104 0,-486 65,-958 186,-1406 z" />
  <path
   id="Blitze"
   class="fil1"
   d="M18068 5571l-4631 2152c20,-108 35,-218 46,-328l2368 -1574 -1561 -319 4823 -3027 -2803 2655 1758 441zm-16136 0l4631 2152c-20,-108 -35,-218 -46,-328l-2368 -1574 1561 -319 -4823 -3027 2803 2655 -1758 441zm3680 -2826l1403 2137 -728 -1522 767 256 -1939 -3099 973 2387 -476 -159zm8776 0l-1403 2137 728 -1522 -767 256 1940 -3099 -974 2387 476 -159z" />
  <path
   id="EF_x0020_Logo"
   class="fil1"
   d="M10000 14996c-577,121 -892,-34 -1137,-364 -245,-331 -131,-916 -423,-1863 -293,-946 -848,-1236 -1575,-681 -185,-728 -48,-1010 330,-1450 -323,7 -605,203 -775,387 -3,-251 226,-1415 1215,-1647 -177,-2 -626,72 -894,223 58,-158 177,-434 635,-697 -341,-359 -687,-1377 -546,-2356 79,-548 325,-671 508,-716 183,-45 325,84 491,215 165,132 652,706 1313,1265 220,-176 362,-364 430,-711 86,60 118,288 108,446 168,-201 254,-458 283,-848 181,259 365,613 511,855 19,-173 10,-308 -38,-492 110,27 386,262 422,750 661,-559 1148,-1133 1313,-1265 166,-131 308,-260 491,-215 183,45 429,168 508,716 141,979 -205,1997 -546,2356 458,263 577,539 635,697 -268,-151 -717,-225 -894,-223 989,232 1218,1396 1215,1647 -170,-184 -452,-380 -775,-387 378,440 515,722 330,1450 -727,-555 -1282,-265 -1575,681 -292,947 -178,1532 -423,1863 -245,330 -560,485 -1137,364zm0 -1121c-336,0 -758,45 -762,393 -2,169 127,243 256,246 -77,-83 -137,-269 59,-290 197,-20 240,142 192,235 -48,92 -67,104 -110,144 53,43 227,124 365,124 138,0 312,-81 365,-124 -43,-40 -62,-52 -110,-144 -48,-93 -5,-255 192,-235 196,21 136,207 59,290 129,-3 258,-77 256,-246 -4,-348 -426,-393 -762,-393zm-2849 -6348c114,65 330,134 457,41 128,-92 22,-450 -41,-684 -48,-178 -205,-350 -329,-363 -124,-13 -155,-70 -129,-163 26,-93 163,-199 296,-186 133,12 480,295 594,1396 115,1100 395,1131 653,1191 -268,14 -526,-62 -668,-261 -187,-113 -675,-268 -833,-971zm1940 3857c192,0 347,6 417,61 10,89 69,927 -147,1114 34,-357 14,-703 -19,-957 -69,-84 -154,-145 -251,-218zm-1077 -985c453,-125 1567,-68 1462,653 -69,11 -234,15 -420,-11 86,-36 146,-121 146,-221 0,-132 -108,-240 -240,-240 -133,0 -241,108 -241,240 0,62 23,118 61,160 -144,-47 -278,-118 -368,-226 -265,-314 -269,-324 -400,-355zm-103 -469c163,-151 650,-500 1080,-500 430,0 520,336 523,429 -165,-79 -445,-153 -713,-153 -268,0 -505,38 -890,224zm4938 -2403c-114,65 -330,134 -457,41 -128,-92 -22,-450 41,-684 48,-178 205,-350 329,-363 124,-13 155,-70 129,-163 -26,-93 -163,-199 -296,-186 -133,12 -480,295 -594,1396 -115,1100 -395,1131 -653,1191 269,14 526,-62 668,-261 187,-113 675,-268 833,-971zm-1940 3857c-192,0 -347,6 -417,61 -10,89 -69,927 147,1114 -34,-357 -13,-703 19,-957 69,-84 154,-145 251,-218zm1077 -985c-453,-125 -1567,-68 -1462,653 69,11 234,15 420,-11 -86,-36 -146,-121 -146,-221 0,-132 108,-240 240,-240 133,0 241,108 241,240 0,62 -23,118 -61,160 144,-47 278,-118 368,-226 265,-314 269,-324 400,-355zm103 -469c-163,-151 -650,-500 -1080,-500 -430,0 -520,336 -523,429 165,-79 445,-153 713,-153 268,0 505,38 890,224z" />
 </g>
</svg>
